<?xml version="1.0" encoding="utf-8"?>
<!-- Generator: Adobe Illustrator 16.0.0, SVG Export Plug-In . SVG Version: 6.00 Build 0)  -->
<!DOCTYPE svg PUBLIC "-//W3C//DTD SVG 1.1//EN" "http://www.w3.org/Graphics/SVG/1.1/DTD/svg11.dtd">
<svg version="1.1" id="Layer_1" xmlns="http://www.w3.org/2000/svg" xmlns:xlink="http://www.w3.org/1999/xlink" x="0px" y="0px"
	 width="202.598px" height="42.453px" viewBox="0 0 202.598 42.453" enable-background="new 0 0 202.598 42.453"
	 xml:space="preserve">
<g>
	<g>
		<path fill="#9DA0A1" d="M86.993,20.066c0.82-1.492,1.25-3.166,1.25-4.87c0-5.602-4.559-10.159-10.159-10.159
			c-0.164,0-0.325,0.011-0.508,0.034H65.4c-2.281,0-4.137,1.856-4.137,4.14v25.423c0,2.282,1.855,4.141,4.137,4.141h14.136
			c0.133,0,0.263-0.008,0.363-0.017c5.879-0.197,10.484-4.955,10.484-10.832C90.383,24.951,89.154,22.11,86.993,20.066z
			 M82.104,27.926c0,1.417-1.154,2.567-2.568,2.567h-9.997v-5.135h9.997C80.95,25.358,82.104,26.509,82.104,27.926z M69.539,17.079
			v-3.728h8.544c0.1,0,0.196-0.003,0.295-0.011c0.905,0.143,1.585,0.934,1.585,1.857c0,1.039-0.845,1.882-1.881,1.882H69.539z"/>
		<g>
			<path fill="#F9A426" d="M132.768,17.295c-2.282,0-4.139,1.857-4.139,4.14v13.199c0,2.282,1.857,4.141,4.139,4.141
				s4.141-1.858,4.141-4.141V21.436C136.908,19.153,135.049,17.295,132.768,17.295z"/>
			<path fill="#9DA0A1" d="M185.279,5.078c-0.048-0.003-0.097-0.006-0.146-0.006H173.62c-2.284,0-4.14,1.856-4.14,4.14v25.423
				c0,2.282,1.855,4.141,4.14,4.141h11.508c0.05,0,0.098-0.003,0.118-0.005C194.227,38.651,201,31.408,201,21.922
				C201,12.442,194.23,5.201,185.279,5.078z M192.72,21.922c0,4.967-3.236,8.571-7.695,8.571h-7.266V13.351h7.266
				C189.483,13.351,192.72,16.957,192.72,21.922z"/>
		</g>
		<path fill="#70BC45" d="M132.768,5.072c-2.282,0-4.139,1.856-4.139,4.14v12.273c0,2.282,1.857,4.141,4.139,4.141
			s4.141-1.858,4.141-4.141V9.211C136.908,6.928,135.049,5.072,132.768,5.072z"/>
		<path fill="#9DA0A1" d="M161.858,30.494h-10.91V9.211c0-2.283-1.856-4.14-4.138-4.14c-2.285,0-4.141,1.856-4.141,4.14v25.423
			c0,2.282,1.856,4.141,4.141,4.141h15.048c2.282,0,4.141-1.858,4.141-4.141C165.999,32.353,164.141,30.494,161.858,30.494z"/>
		<g>
			<path fill="#EA1C5F" d="M98.013,4.586c-2.283,0-4.14,1.858-4.14,4.14v16.415c0,2.281,1.856,4.138,4.14,4.138
				c2.284,0,4.139-1.856,4.139-4.138V8.726C102.152,6.445,100.297,4.586,98.013,4.586z"/>
			<path fill="#2182C5" d="M119.339,4.586c-2.282,0-4.138,1.858-4.138,4.14v16.415c0,2.281,1.856,4.138,4.138,4.138
				c2.284,0,4.141-1.856,4.141-4.138V8.726C123.48,6.445,121.624,4.586,119.339,4.586z"/>
			<path fill="#8D53A0" d="M119.339,21c-2.282,0-4.138,1.857-4.138,4.141c0,1.285-0.652,2.561-1.835,3.588
				c-1.29,1.121-3.006,1.764-4.708,1.764c-3.465,0-6.506-2.502-6.506-5.353c0-2.283-1.855-4.141-4.139-4.141
				c-2.283,0-4.14,1.857-4.14,4.141c0,7.389,6.771,13.634,14.785,13.634c8.033,0,14.822-6.245,14.822-13.634
				C123.48,22.858,121.624,21,119.339,21z"/>
		</g>
	</g>
	<path fill="#9DA0A1" d="M51.589,12.23c0-3.834-3.12-6.955-6.953-6.955c-1.335,0-2.609,0.377-3.725,1.089l-0.02-0.022l-0.494,0.381
		L40.33,6.776C36.73,3.212,31.787,1.003,26.323,1l0,0c-0.006,0-0.009,0-0.015,0c-5.477,0-10.429,2.214-14.032,5.788L12.21,6.736
		l-0.495-0.382l-0.021,0.02c-1.119-0.719-2.399-1.099-3.741-1.099C4.121,5.275,1,8.396,1,12.23c0,3.042,1.938,5.674,4.783,6.604
		l-0.003,0.027l0.61,0.141l0.084,0.018c-0.062,0.633-0.104,1.271-0.104,1.922c0,11.011,8.927,19.939,19.939,19.939
		c11.013,0,19.94-8.928,19.94-19.939c0-0.654-0.045-1.292-0.108-1.928l0.089-0.02c0.002,0,0.002-0.001,0.002-0.001l0.604-0.141
		l-0.003-0.03C49.664,17.888,51.589,15.259,51.589,12.23z M7.698,15.82c-0.221,0-0.437-0.023-0.647-0.062
		c-1.674-0.305-2.944-1.77-2.944-3.532c0-1.984,1.607-3.593,3.592-3.593c0.876,0,1.68,0.316,2.303,0.838
		c0.787,0.658,1.29,1.647,1.29,2.755C11.291,14.21,9.683,15.82,7.698,15.82z M26.348,36.653c-0.009,0-0.017,0-0.025,0
		c-8.1-0.012-14.661-5.391-14.661-12.025c0-2.72,1.105-5.233,2.969-7.248c-0.146-0.238-0.274-0.486-0.391-0.74
		c-0.012-0.024-0.023-0.051-0.034-0.076c-0.25-0.555-0.438-1.145-0.542-1.763c-0.067-0.392-0.104-0.795-0.104-1.206
		c0-0.947,0.188-1.851,0.52-2.68c0.129-0.32,0.281-0.63,0.453-0.925c0,0,0,0,0-0.001c0.045-0.078,0.095-0.152,0.144-0.229
		c0.04-0.063,0.078-0.129,0.122-0.192c0.05-0.073,0.102-0.144,0.154-0.215c0.045-0.063,0.091-0.125,0.137-0.187
		c0.054-0.068,0.11-0.136,0.167-0.203c0.05-0.06,0.101-0.119,0.152-0.178c0.059-0.064,0.117-0.126,0.176-0.189
		c0.055-0.058,0.112-0.113,0.17-0.17c0.06-0.059,0.121-0.117,0.184-0.174C16,8.198,16.062,8.145,16.126,8.091
		c0.062-0.053,0.123-0.106,0.188-0.157c0.072-0.056,0.147-0.11,0.221-0.165c0.059-0.042,0.117-0.088,0.178-0.129
		c0.131-0.089,0.267-0.178,0.405-0.258c0.047-0.028,0.097-0.053,0.145-0.08c0.099-0.055,0.197-0.109,0.296-0.16
		c0.062-0.03,0.124-0.058,0.187-0.086c0.091-0.042,0.182-0.083,0.273-0.122c0.067-0.027,0.134-0.053,0.202-0.078
		c0.092-0.034,0.184-0.067,0.278-0.099c0.069-0.023,0.139-0.045,0.206-0.065c0.096-0.028,0.193-0.056,0.289-0.081
		c0.07-0.017,0.14-0.034,0.209-0.049c0.103-0.021,0.205-0.042,0.309-0.06c0.067-0.013,0.133-0.025,0.202-0.035
		c0.115-0.017,0.23-0.03,0.348-0.042c0.057-0.006,0.115-0.013,0.173-0.017c0.175-0.012,0.353-0.021,0.531-0.021
		c2.239,0,4.234,1.027,5.557,2.63c0.031,0.039,0.067,0.072,0.098,0.112c1.32-1.669,3.362-2.742,5.654-2.742
		c0.172,0,0.342,0.009,0.509,0.019c0.056,0.004,0.113,0.011,0.169,0.017c0.11,0.012,0.222,0.021,0.33,0.037
		c0.066,0.01,0.131,0.022,0.197,0.033c0.098,0.016,0.194,0.033,0.292,0.053c0.068,0.016,0.137,0.032,0.206,0.048
		c0.09,0.022,0.179,0.045,0.267,0.071c0.072,0.02,0.142,0.041,0.212,0.063c0.084,0.026,0.166,0.055,0.249,0.084
		c0.071,0.026,0.143,0.052,0.213,0.08c0.078,0.031,0.155,0.064,0.231,0.098c0.071,0.031,0.144,0.062,0.213,0.095
		c0.072,0.034,0.139,0.07,0.209,0.106c0.073,0.039,0.147,0.074,0.22,0.115c0.035,0.02,0.067,0.041,0.101,0.061
		c0.188,0.111,0.371,0.229,0.547,0.354c0.039,0.027,0.077,0.053,0.113,0.08c0.084,0.063,0.166,0.128,0.244,0.193
		c0.041,0.033,0.082,0.064,0.123,0.098c0.076,0.066,0.154,0.137,0.231,0.208c0.036,0.034,0.076,0.069,0.111,0.106
		c0.077,0.07,0.15,0.145,0.221,0.222c0.035,0.035,0.068,0.072,0.102,0.109c0.072,0.079,0.142,0.159,0.212,0.241
		c0.027,0.034,0.056,0.069,0.084,0.104c0.069,0.087,0.139,0.175,0.206,0.265c0.02,0.028,0.04,0.059,0.061,0.088
		c0.069,0.099,0.139,0.198,0.204,0.301V9.74c0.167,0.262,0.32,0.533,0.452,0.817c0.432,0.925,0.68,1.95,0.68,3.039
		c0,0.544-0.062,1.072-0.175,1.581c-0.125,0.551-0.317,1.076-0.559,1.572c-0.01,0.021-0.02,0.043-0.029,0.062
		c-0.114,0.229-0.235,0.451-0.372,0.663c1.811,1.999,2.883,4.474,2.883,7.153C41.032,31.27,34.458,36.653,26.348,36.653z
		 M45.564,15.76c-0.207,0.037-0.418,0.06-0.634,0.06c-1.984,0-3.593-1.609-3.593-3.593c0-1.104,0.5-2.091,1.283-2.749
		c0.625-0.526,1.43-0.845,2.311-0.845c1.983,0,3.593,1.609,3.593,3.593C48.523,13.994,47.246,15.459,45.564,15.76z"/>
	<path fill="#9DA0A1" d="M20.839,16.414c1.555-0.015,2.762-1.246,2.756-2.807c-0.01-1.567-1.223-2.77-2.791-2.764
		c-1.554,0.005-2.76,1.229-2.754,2.799C18.054,15.191,19.298,16.427,20.839,16.414z"/>
	<g>
		<path fill="#9DA0A1" d="M24.533,20.805c-0.572,0.003-1.021,0.457-1.019,1.034c0.001,0.563,0.46,1.022,1.023,1.022h0.009
			c0.572-0.004,1.019-0.46,1.016-1.036C25.56,21.255,25.109,20.805,24.533,20.805z M24.538,22.631L24.538,22.631v0.001V22.631z"/>
		<path fill="#9DA0A1" d="M28.072,20.805c-0.574,0.003-1.02,0.457-1.02,1.034c0.001,0.563,0.461,1.022,1.023,1.022h0.009
			c0.573-0.004,1.019-0.46,1.018-1.036C29.097,21.255,28.646,20.805,28.072,20.805z M28.076,22.631L28.076,22.631v0.001V22.631z"/>
	</g>
	<g>
		<path fill="#9DA0A1" d="M33.942,25.091c-0.117,0.038-0.247,0.062-0.548,0.486c-0.978,1.373-2.509,2.361-5.068,3.302
			c-1.635,0.603-3.722,0.997-4.639,0.969c-0.916-0.035-1.074,0.221-1.074,0.526c0,0.331,0.601,0.542,0.893,0.654
			c0.291,0.11,2.542,0.627,3.974,0.627c4.548,0,7.547-1.781,7.678-4.121c0.046-0.824-0.158-1.766-0.76-2.319
			C34.334,25.159,34.144,25.028,33.942,25.091z"/>
	</g>
	<g>
		<path fill="#9DA0A1" d="M35.463,13.003c-0.037-1.202-1.429-2.171-3.145-2.171c-1.708,0-3.098,0.959-3.143,2.157l0.001,0.064
			c0.021,0.13,0.13,0.229,0.268,0.229c0.073,0,0.141-0.029,0.19-0.079l0.009-0.009c0.554-0.63,1.544-1.052,2.675-1.052
			c1.132,0,2.121,0.422,2.676,1.053l0.007,0.007c0.05,0.049,0.117,0.08,0.191,0.08c0.135,0,0.246-0.101,0.267-0.229L35.463,13.003z"
			/>
	</g>
</g>
</svg>
